<?xml version="1.0" encoding="UTF-8"?><svg id="b" xmlns="http://www.w3.org/2000/svg" viewBox="0 0 31.43 31.43"><defs><style>.d{fill:#253b7c;}.e{fill:#fffff3;}</style></defs><g id="c"><circle class="d" cx="15.72" cy="15.72" r="15.72"/><path class="e" d="M8.28,17.42l4.53,4.53c.47.47,1.23.47,1.71,0h0c.47-.47.47-1.23,0-1.71l-4.53-4.53,4.53-4.53c.47-.47.47-1.23,0-1.71h0c-.47-.47-1.23-.47-1.71,0l-4.53,4.53-1.71,1.71,1.71,1.71Z"/><path class="e" d="M7.21,15.72h0c0,.67.54,1.21,1.21,1.21h6.41s2.41,0,2.41,0h6.41c.67,0,1.21-.54,1.21-1.21h0c0-.67-.54-1.21-1.21-1.21h-6.41s-2.41,0-2.41,0h-6.41c-.67,0-1.21.54-1.21,1.21Z"/></g></svg>