<?xml version="1.0" encoding="UTF-8"?><svg id="b" xmlns="http://www.w3.org/2000/svg" viewBox="0 0 226.39 59.38"><defs><style>.f{fill:#5c5b5b;}.g{fill:#0066b0;}</style></defs><g id="c"><g id="d"><g id="e"><path class="f" d="M14.17,33.12h-7.19l5.5-16.53H3.98C1.78,16.59,0,14.81,0,12.61c0-2.2,1.78-3.98,3.98-3.98h12.02c0-4.77,2.95-8.63,6.57-8.63s6.57,3.86,6.57,8.63h11.95c2.2,0,3.98,1.78,3.98,3.98s-1.78,3.98-3.98,3.98h-8.44l5.5,16.53h-7.24c-.4-5.04-4.41-9.02-8.35-9.02s-7.95,3.99-8.35,9.02"/><path class="g" d="M14.17,59.38h-7.19l5.5-16.51H3.98c-2.2-.13-3.89-2.01-3.76-4.21.12-2.03,1.73-3.64,3.76-3.76h12.02c0-4.77,2.95-8.63,6.57-8.63s6.57,3.86,6.57,8.63h11.95c2.2.13,3.89,2.01,3.76,4.21-.12,2.03-1.73,3.64-3.76,3.76h-8.44l5.5,16.51h-7.24c-.4-5.04-4.41-9.02-8.35-9.02s-7.95,4.01-8.35,9.02"/><path class="f" d="M162.11,46.37c-.3.27-.7.43-1.11.44-.97,0-1.29-.75-1.29-1.58s.44-1.76,1.44-1.76c.37-.01.73.11,1,.35l-.05,2.56ZM164.25,39.07h-2.09v3.17c-1.57-.79-3.48-.15-4.27,1.42-.27.55-.38,1.16-.32,1.77-.13,1.62,1.08,3.03,2.69,3.16.05,0,.1,0,.15,0,.64-.03,1.25-.27,1.75-.67v.44h2.05l.03-9.3ZM149.31,48.37h2.15v-4.04c.31-.31.7-.5,1.13-.57.64,0,.79.4.79.9v3.71h2.15v-4.03c0-1.7-.72-2.43-2.05-2.43-.76.04-1.48.36-2.02.9v-.68h-2.04l-.12,6.25ZM144.84,46.77c0,.14-.44.41-.88.41-.38.04-.72-.24-.76-.63,0,0,0,0,0,0,0-.7.71-.97,1.29-1h.37l-.03,1.22ZM142.34,44.2c.54-.37,1.16-.6,1.8-.68.36-.02.67.25.7.61,0,.04,0,.08,0,.12v.23c-.53.04-1.06.13-1.58.26-1.29.33-2.05.82-2.05,2.11-.02.98.76,1.79,1.74,1.81.07,0,.14,0,.22,0,.66-.03,1.29-.27,1.8-.68.09.45.49.68,1.07.68.57-.01,1.14-.15,1.66-.39l-.23-1.19c-.08.05-.17.08-.27.08-.27,0-.36-.18-.36-.43v-3.01c0-1.2-.75-1.76-1.91-1.76-1.19.01-2.34.38-3.32,1.04l.73,1.2ZM137.19,48.42h2.15v-9.3h-2.16v9.3ZM131.56,48.42h2.15v-3.61c.27-.45.76-.73,1.29-.73.26,0,.52.05.77.13l.28-2.13c-.23-.05-.47-.08-.71-.08-.69.02-1.31.43-1.58,1.06h0v-.89h-2.16l-.04,6.25ZM125.43,44.56c.09-.67.62-1.2,1.29-1.29.72,0,1.03.58,1.03,1.29h-2.32ZM128.66,46.5c-.49.4-1.11.62-1.75.62-.7.12-1.37-.35-1.49-1.05-.01-.08-.02-.16-.02-.24h4.33c0-2.14-.75-3.86-3.12-3.86-1.87.01-3.38,1.54-3.36,3.41,0,.02,0,.04,0,.07-.08,1.71,1.25,3.15,2.95,3.22.11,0,.23,0,.34,0,1.02.02,2.02-.31,2.83-.94l-.72-1.22ZM119.31,46.5c-.31.28-.71.43-1.12.44-.97,0-1.29-.75-1.29-1.58s.45-1.76,1.46-1.76c.37-.01.72.11,1,.35l-.05,2.56ZM121.43,39.2h-2.01v3.17c-1.57-.79-3.48-.15-4.27,1.42-.27.55-.38,1.16-.32,1.77-.13,1.62,1.08,3.03,2.69,3.16.05,0,.1,0,.15,0,.64-.04,1.25-.27,1.75-.67v.44h2.04l-.04-9.3ZM108.8,44.6c.09-.67.62-1.2,1.29-1.29.72,0,1.03.58,1.03,1.29h-2.32ZM112.07,46.46c-.5.4-1.12.62-1.76.62-.7.12-1.37-.35-1.49-1.05-.01-.08-.02-.16-.02-.24h4.33c0-2.14-.73-3.86-3.12-3.86-1.87.01-3.38,1.54-3.36,3.41,0,.02,0,.04,0,.07-.08,1.71,1.25,3.15,2.95,3.22.11,0,.23,0,.34,0,1.02.02,2.02-.31,2.83-.94l-.71-1.22ZM96.89,48.42h2.01v-5.63h0l3.09,5.63h2.58l.08-8.58h-1.95v5.63h0l-2.96-5.63h-2.71l-.14,8.58ZM78.22,48.42h2.19l1.29-6.12h0l1.42,6.12h2.58l1.52-6.12h0l.94,6.12h2.23l-1.7-8.58h-2.8l-1.53,6.27h0l-1.29-6.27h-2.78l-2.06,8.58ZM72.14,41.48h1.04c.63,0,1.19.17,1.19.93,0,.52-.36.88-1.08.88h-1.15v-1.8ZM72.14,44.92h1.16c.66,0,1.12.33,1.12.95s-.39.91-1.06.91h-1.22v-1.87ZM69.96,48.42h3.86c1.69,0,2.81-.72,2.81-2.33.06-.94-.57-1.78-1.48-2h0c.86-.26,1.42-1.08,1.37-1.97,0-1.7-1.29-2.28-3.01-2.28h-3.49l-.05,8.58ZM65.18,48.42h2.23l.08-8.58h-2.25l-.05,8.58Z"/><path class="f" d="M221.2,33.18c.73.27,1.5.41,2.28.41,1.51,0,2.91-.52,2.91-2.13,0-1.39-.89-1.78-2.11-2.04-.68-.13-.79-.3-.79-.55s.45-.49.79-.49c.52.01,1.04.1,1.53.26l.39-1.29c-.7-.3-1.46-.44-2.22-.41-1.29,0-2.73.57-2.73,2.07,0,1.16.64,1.66,1.7,1.96s1.21.41,1.21.68-.41.49-.72.49c-.6-.02-1.2-.14-1.76-.35l-.48,1.38ZM217.34,31.38c-.31.27-.7.42-1.11.43-.97,0-1.29-.73-1.29-1.58s.44-1.76,1.44-1.76c.37-.01.73.11,1,.35l-.05,2.58ZM219.47,24.08h-2.09v3.16c-1.57-.79-3.48-.15-4.27,1.42-.27.55-.38,1.16-.32,1.77-.13,1.62,1.08,3.03,2.69,3.16.05,0,.1,0,.15,0,.64-.03,1.25-.27,1.75-.67v.45h2.05l.03-9.3ZM204.53,33.38h2.16v-4.04c.31-.31.7-.51,1.13-.58.64,0,.79.4.79.91v3.71h2.15v-4.03c0-1.71-.72-2.45-2.05-2.45-.76.04-1.48.36-2.02.9v-.67h-2.15v6.25ZM197.78,30.25c0-.82.32-1.71,1.29-1.71s1.29.89,1.29,1.71-.31,1.71-1.29,1.71-1.29-.89-1.29-1.71M195.63,30.25c.12,1.93,1.78,3.4,3.71,3.28,1.77-.11,3.18-1.52,3.28-3.28-.12-1.93-1.78-3.4-3.71-3.28-1.77.11-3.18,1.52-3.28,3.28M190.64,33.38h2.15v-4.69h1.71v-1.56h-1.58v-.4c0-.95.53-1.09,1.35-1.09h.23v-1.56h-.93c-2.2,0-2.87.88-2.87,3.05h-.99v1.56h.97l-.04,4.69ZM181.94,33.38h2.16v-4.04c.3-.31.69-.51,1.12-.58.64,0,.79.4.79.91v3.71h2.15v-4.03c0-1.71-.72-2.45-2.04-2.45-.76.04-1.48.36-2.02.9v-.67h-2.09l-.08,6.25ZM175.82,29.51c.11-.65.63-1.15,1.29-1.22.72,0,1.03.58,1.03,1.22h-2.32ZM179.05,31.4c-.5.41-1.12.63-1.76.63-.7.11-1.36-.36-1.48-1.07-.01-.07-.02-.15-.02-.22h4.33c0-2.14-.75-3.86-3.13-3.86-1.87.01-3.38,1.54-3.36,3.41,0,.03,0,.05,0,.08-.07,1.71,1.26,3.14,2.97,3.21.11,0,.22,0,.33,0,1.03.02,2.03-.31,2.85-.93l-.72-1.25ZM167.23,30.25c0-.82.31-1.71,1.29-1.71s1.29.89,1.29,1.71-.31,1.71-1.29,1.71-1.29-.89-1.29-1.71M165.06,30.25c.12,1.93,1.78,3.4,3.71,3.28,1.77-.11,3.18-1.52,3.28-3.28-.12-1.93-1.78-3.4-3.71-3.28-1.77.11-3.18,1.52-3.28,3.28M161.02,26.12h2.15v-1.78h-2.15v1.78ZM161.02,33.38h2.15v-6.25h-2.15v6.25ZM154.09,33.18c.73.27,1.5.41,2.28.41,1.51,0,2.91-.52,2.91-2.13,0-1.39-.89-1.78-2.11-2.04-.68-.13-.79-.3-.79-.55s.45-.49.79-.49c.52.01,1.04.1,1.53.26l.39-1.29c-.7-.3-1.46-.44-2.22-.41-1.29,0-2.72.57-2.72,2.07,0,1.16.64,1.66,1.69,1.96s1.21.41,1.21.68-.41.49-.72.49c-.6-.02-1.2-.14-1.76-.35l-.48,1.38ZM146.04,33.38h2.1v-4.04c.31-.31.7-.51,1.13-.58.64,0,.79.4.79.91v3.71h2.15v-4.03c0-1.71-.72-2.45-2.05-2.45-.76.04-1.48.36-2.02.9v-.67h-2.15l.05,6.25ZM139.9,29.51c.12-.64.64-1.14,1.29-1.22.72,0,1.03.58,1.03,1.22h-2.32ZM143.15,31.46c-.5.41-1.12.63-1.76.63-.7.11-1.36-.36-1.48-1.07-.01-.07-.02-.15-.02-.22h4.38c0-2.14-.73-3.86-3.12-3.86-1.87.01-3.38,1.54-3.36,3.41,0,.03,0,.05,0,.08-.07,1.71,1.26,3.14,2.97,3.21.11,0,.22,0,.33,0,1.03.02,2.03-.31,2.85-.93l-.79-1.25ZM131.87,26.48h.9c.89,0,1.29.31,1.29,1s-.75,1.02-1.29,1.02h-1l.1-2.02ZM129.6,33.43h2.25v-3.28h1.43c1.73,0,2.99-.86,2.99-2.68,0-.98-.48-2.58-3.35-2.58h-3.3l-.03,8.54ZM123.35,27.18l-2.07.12c-.52-.24-1.09-.36-1.66-.35-1.38,0-2.77.59-2.77,2.16,0,.74.45,1.41,1.13,1.69-.61.21-1.56.72-1.56,1.47,0,.49.33.8,1.29.98h0c-.84.35-1.29.86-1.29,1.49,0,1.57,1.96,1.78,3.13,1.78,1.57,0,3.49-.7,3.49-2.51s-2.02-2.09-3.48-2.22c-.45,0-.72-.12-.72-.37,0-.12.06-.23.15-.3h.89c1.19,0,2.58-.55,2.58-1.84-.01-.29-.1-.57-.24-.82l1.21.08-.08-1.35ZM119.63,28.13c.49.01.89.41.9.9,0,.5-.4.9-.9.9-.49.01-.9-.37-.91-.86,0-.01,0-.03,0-.04,0-.5.4-.9.9-.9,0,0,0,0,.01,0M118.34,34.33c0-.31.21-.58.66-.86,1.56.14,1.95.39,1.95.84s-.66.82-1.29.82-1.29-.17-1.29-.8M108.65,33.43h2.13v-4.04c.3-.31.69-.51,1.12-.58.64,0,.79.4.79.91v3.71h2.15v-4.03c0-1.71-.72-2.45-2.04-2.45-.77.04-1.49.36-2.04.9v-.67h-2.11v6.25ZM104.34,26.12h2.16v-1.78h-2.16v1.78ZM104.34,33.38h2.16v-6.25h-2.16v6.25ZM97.9,28.69h.93v2.37c0,1.43.09,2.58,1.83,2.58.76-.01,1.49-.22,2.14-.62l-.48-1.47c-.23.17-.5.28-.79.3-.49,0-.62-.26-.62-.8v-2.32h1.75v-1.56h-1.74v-2.13h-2.02v2.13h-1v1.52ZM90.17,33.38h2.15v-4.04c.31-.31.7-.51,1.13-.58.64,0,.77.4.77.91v3.71h2.15v-4.03c0-1.71-.72-2.45-2.05-2.45-.76.04-1.48.36-2.02.9v-3.72h-2.04l-.1,9.3ZM87.85,31.52c-.35.21-.75.33-1.16.36-.87.05-1.62-.62-1.67-1.49,0-.04,0-.07,0-.11-.03-.9.68-1.66,1.59-1.68.07,0,.14,0,.22,0,.35.02.7.1,1.02.24l.7-1.4c-.65-.36-1.38-.56-2.13-.55-1.83-.12-3.42,1.26-3.54,3.09,0,.14-.01.27,0,.41-.07,1.71,1.26,3.14,2.97,3.21.16,0,.32,0,.47-.02.81-.02,1.59-.25,2.29-.64l-.75-1.43ZM78.83,26.12h2.16v-1.78h-2.11l-.05,1.78ZM78.83,33.38h2.16v-6.25h-2.11l-.05,6.25ZM72.39,28.69h1.03c0,.82-.06,1.6-.06,2.37,0,1.43.09,2.58,1.83,2.58.75-.03,1.47-.26,2.1-.66l-.48-1.47c-.23.17-.5.28-.79.3-.49,0-.62-.26-.62-.8v-2.32h1.88v-1.56h-1.8v-2.13h-2.06v2.13h-.91l-.12,1.56ZM64.92,33.13c.86.3,1.76.47,2.67.49,1.92,0,3.61-.81,3.61-2.92,0-1.21-.59-2.09-2.78-2.58-.99-.21-1.29-.5-1.29-.85,0-.54.39-.93,1.46-.93.62.02,1.23.15,1.82.36l.63-1.58c-.87-.35-1.79-.55-2.73-.57-1.62,0-3.48.86-3.48,2.71-.07,1.22.8,2.3,2.01,2.49,1,.3,2.01.36,2.01,1.16s-.72.94-1.42.94c-.68-.03-1.34-.16-1.98-.37l-.52,1.66Z"/></g></g></g></svg>