<?xml version="1.0" encoding="UTF-8"?><svg id="b" xmlns="http://www.w3.org/2000/svg" viewBox="0 0 702.52 461.39"><defs><style>.d{fill:#253b7c;}.e{fill:#e7ee93;}.f{fill:#40c3e8;}.g{fill:#d0dd28;}.h{fill:#915e3d;}.i{fill:#229936;}.j{fill:#fff;stroke:#253b7c;stroke-linecap:round;stroke-linejoin:round;}</style></defs><g id="c"><path class="i" d="M668.44,94.17c1.21-2.97,1.89-6.21,1.89-9.61,0-14.03-11.37-25.4-25.4-25.4-7.48,0-14.21,3.24-18.86,8.39-2.27-2.05-5.26-3.31-8.55-3.31-7.05,0-12.77,5.72-12.77,12.77,0,.27.02.54.04.8-7.05,0-12.77,5.72-12.77,12.77,0,1.02.13,2,.36,2.95-6.94,1.85-12.07,8.16-12.07,15.69,0,8.97,7.28,16.25,16.25,16.25h65.76c8.97,0,16.25-7.28,16.25-16.25,0-6.81-4.19-12.63-10.14-15.05Z"/><rect class="e" y="98.34" width="702.52" height="363.04" rx="45" ry="45"/><polygon class="i" points="357 444.84 366 440.34 360 450.84 340.5 450.84 330 435.84 342 444.84 339 431.34 346.5 441.84 348 426.84 352.5 441.84 363 431.34 357 444.84"/><polyline class="i" points="19.5 431.34 16.5 417.84 24 428.34 25.5 413.34 30 428.34 40.5 417.84 34.5 431.34 43.5 426.84 37.5 437.34 18 437.34"/><polygon class="i" points="495 173.34 504 168.84 498 179.34 478.5 179.34 468 164.34 480 173.34 477 159.84 484.5 170.34 486 155.34 490.5 170.34 501 159.84 495 173.34"/><path class="d" d="M249.97,16.61h17.46l13.31-16.61h3.97l-6.63,16.61h12.39l2.73-5.68h2.83l-.98,7.71c.01,2.12-1.7,3.85-3.82,3.85h-12.91l6.75,17.63h-3.97l-14.12-17.38h-17.03c-1.69,0-3.07-1.37-3.07-3.07s1.37-3.07,3.07-3.07"/><path class="j" d="M113.74,66.12s5.75-1.35,10.15,3.72c0,0,2.31-6.55,7.38-7.22"/><path class="f" d="M305.3,211.91l-92.93.49c-17.89.07-32.43,14.46-32.67,32.36l-.62,66.35c-.25,18.28,14.51,33.24,32.79,33.24h87.42c1.49,0,2.69,1.2,2.69,2.69v114.28h21v-125.84c0-6.7-5.43-12.13-12.13-12.13h-18.3c-7.87,0-14.25-6.38-14.25-14.25h0c0-7.87,6.38-14.25,14.25-14.25h57.75s0-196.5,0-196.5h-45s0,113.57,0,113.57Z"/><rect class="h" x="301.98" y="367.64" width="3" height="10.5"/><rect class="h" x="306.48" y="367.64" width="3" height="10.5"/><rect class="h" x="310.98" y="367.64" width="3" height="10.5"/><rect class="h" x="315.48" y="367.64" width="3" height="10.5"/><rect class="h" x="319.98" y="367.64" width="3" height="10.5"/><rect class="g" x="15.57" y="166.87" width="102.93" height="36.95" rx="18.47" ry="18.47"/><path class="i" d="M101.2,148.37c.61-1.27.96-2.69.96-4.19,0-5.37-4.36-9.73-9.73-9.73-.69,0-1.36.07-2,.21-1.94-7.06-8.39-12.26-16.07-12.26-6.59,0-12.27,3.83-14.98,9.37-1.68-.66-3.5-1.03-5.41-1.03-8.19,0-14.83,6.64-14.83,14.83,0,.95.1,1.89.27,2.79-5.28.1-9.54,4.41-9.54,9.72s4.36,9.73,9.73,9.73h61.17c5.37,0,9.73-4.36,9.73-9.73s-4.13-9.48-9.3-9.71Z"/><path class="g" d="M304.29,161.13c2.94-1.38,4.98-4.36,4.98-7.82,0-2.75-1.29-5.19-3.28-6.78l1.62-1.62c3.86-3.86,3.86-10.12,0-13.98-3.86-3.86-10.12-3.86-13.98,0l-.44.44c0-.1.02-.2.02-.3,0-4.78-3.87-8.65-8.65-8.65s-8.65,3.87-8.65,8.65c0,.89.14,1.75.39,2.56-.5-.06-1.01-.09-1.53-.09-7.46,0-13.5,6.04-13.5,13.5,0,5.21,2.96,9.73,7.28,11.98-2.21,3.33-3.5,7.31-3.5,11.61,0,11.61,9.41,21.02,21.02,21.02h4.67v-9.92c2.07,1.56,4.63,2.49,7.41,2.49,6.83,0,12.36-5.53,12.36-12.36,0-4.59-2.5-8.58-6.21-10.71Z"/><polygon class="h" points="298.43 154.57 296.32 151.8 291.04 155.82 283.45 146.06 280.7 148.2 288.52 158.25 288.26 158.25 287.65 172.82 279.08 169.01 277.66 172.2 287.49 176.57 285.78 204.84 294.43 204.84 292.01 159.46 298.43 154.57"/><path class="i" d="M264.06,195.21c.54-1.12.85-2.38.85-3.71,0-4.75-3.85-8.6-8.6-8.6-.61,0-1.2.06-1.77.18-1.72-6.24-7.42-10.84-14.21-10.84-5.82,0-10.84,3.38-13.24,8.29-1.48-.58-3.09-.91-4.78-.91-7.24,0-13.11,5.87-13.11,13.11,0,.84.09,1.67.24,2.47-4.67.09-8.43,3.9-8.43,8.59s3.85,8.6,8.6,8.6h54.07c4.75,0,8.6-3.85,8.6-8.6s-3.65-8.38-8.22-8.58Z"/><polygon class="i" points="336.44 287.65 331.12 263.02 337.5 275.31 337.9 273.68 343.36 263.81 339.03 287.65 336.44 287.65"/><rect class="i" x="336.71" y="261.31" width="1.3" height="24.27" transform="translate(-3.22 4.03) rotate(-.68)"/><path class="h" d="M338.75,266.26c0,.76-.65,1.38-1.44,1.38h0c-.8,0-1.44-.62-1.44-1.38v-9.93c0-.76.65-1.38,1.44-1.38h0c.8,0,1.44.62,1.44,1.38v9.93Z"/><polygon class="i" points="346.58 287.65 343.08 262.02 347.64 275.31 348.04 273.68 353.67 265.21 349.17 287.65 346.58 287.65"/><rect class="i" x="346.85" y="261.31" width="1.3" height="24.27" transform="translate(-3.22 4.15) rotate(-.68)"/><path class="h" d="M348.89,262.78c0,.76-.65,1.38-1.44,1.38h0c-.8,0-1.44-.62-1.44-1.38v-9.93c0-.76.65-1.38,1.44-1.38h0c.8,0,1.44.62,1.44,1.38v9.93Z"/><polygon class="i" points="335.37 293.79 327.57 269.43 338.64 282.07 343.18 272.2 347.99 281.11 356.93 270.09 350.21 293.96 335.37 293.79"/><path class="g" d="M335.45,294.67c.22-1.87,0-15.48,0-15.48,0,0,3.47,9.57,3.57,8.46s4.45-8.25,4.45-8.25l.97,10.56,4.84-7.32.35,9.16.66,3.03-14.84-.17Z"/></g></svg>