<?xml version="1.0" encoding="UTF-8"?>
<svg id="b" xmlns="http://www.w3.org/2000/svg" version="1.1" viewBox="0 0 702.5 461.4">
  <!-- Generator: Adobe Illustrator 29.2.1, SVG Export Plug-In . SVG Version: 2.1.0 Build 116)  -->
  <defs>
    <style>
      .st0 {
        fill: #40c3e8;
      }

      .st1 {
        fill: #229936;
      }

      .st2 {
        fill: #d0dd28;
      }

      .st3 {
        fill: #d0dd28;
      }

      .st4 {
        fill: #e7ee93;
      }

      .st5, .st6 {
        fill: #fff;
      }

      .st6 {
        stroke: #253b7c;
        stroke-linecap: round;
        stroke-linejoin: round;
      }

      .st7 {
        fill: #915e3d;
      }

      .st8 {
        fill: #229936;
      }

      .st9 {
        fill: #253b7c;
      }
    </style>
  </defs>
  <g id="c">
    <path class="st8" d="M668.4,94.2c1.2-3,1.9-6.2,1.9-9.6,0-14-11.4-25.4-25.4-25.4s-14.2,3.2-18.9,8.4c-2.3-2.1-5.3-3.3-8.5-3.3-7,0-12.8,5.7-12.8,12.8s0,.5,0,.8c-7,0-12.8,5.7-12.8,12.8s0,2,.4,2.9c-6.9,1.8-12.1,8.2-12.1,15.7s7.3,16.2,16.2,16.2h65.8c9,0,16.2-7.3,16.2-16.2s-4.2-12.6-10.1-15.1h0Z"/>
    <rect class="st4" y="98.3" width="702.5" height="363" rx="45" ry="45"/>
    <polygon class="st8" points="357 444.8 366 440.3 360 450.8 340.5 450.8 330 435.8 342 444.8 339 431.3 346.5 441.8 348 426.8 352.5 441.8 363 431.3 357 444.8"/>
    <polyline class="st8" points="19.5 431.3 16.5 417.8 24 428.3 25.5 413.3 30 428.3 40.5 417.8 34.5 431.3 43.5 426.8 37.5 437.3 18 437.3"/>
    <polygon class="st8" points="495 173.3 504 168.8 498 179.3 478.5 179.3 468 164.3 480 173.3 477 159.8 484.5 170.3 486 155.3 490.5 170.3 501 159.8 495 173.3"/>
    <path class="st9" d="M250,16.6h17.5l13.3-16.6h4l-6.6,16.6h12.4l2.7-5.7h2.8l-1,7.7c0,2.1-1.7,3.9-3.8,3.9h-12.9l6.8,17.6h-4l-14.1-17.4h-17c-1.7,0-3.1-1.4-3.1-3.1s1.4-3.1,3.1-3.1"/>
    <path class="st6" d="M113.7,66.1s5.8-1.3,10.2,3.7c0,0,2.3-6.5,7.4-7.2"/>
    <path class="st0" d="M305.3,211.9l-92.9.5c-17.9,0-32.4,14.5-32.7,32.4l-.6,66.4c-.2,18.3,14.5,33.2,32.8,33.2h87.4c1.5,0,2.7,1.2,2.7,2.7v114.3h21v-125.8c0-6.7-5.4-12.1-12.1-12.1h-18.3c-7.9,0-14.2-6.4-14.2-14.2h0c0-7.9,6.4-14.2,14.2-14.2h57.8V98.4h-45v113.6h-.1Z"/>
    <rect class="st7" x="302" y="367.6" width="3" height="10.5"/>
    <rect class="st7" x="306.5" y="367.6" width="3" height="10.5"/>
    <rect class="st7" x="311" y="367.6" width="3" height="10.5"/>
    <rect class="st7" x="315.5" y="367.6" width="3" height="10.5"/>
    <rect class="st7" x="320" y="367.6" width="3" height="10.5"/>
    <path class="st8" d="M264.1,195.2c.5-1.1.9-2.4.9-3.7,0-4.8-3.9-8.6-8.6-8.6s-1.2,0-1.8.2c-1.7-6.2-7.4-10.8-14.2-10.8s-10.8,3.4-13.2,8.3c-1.5-.6-3.1-.9-4.8-.9-7.2,0-13.1,5.9-13.1,13.1s0,1.7.2,2.5c-4.7,0-8.4,3.9-8.4,8.6s3.9,8.6,8.6,8.6h54.1c4.8,0,8.6-3.9,8.6-8.6s-3.6-8.4-8.2-8.6h0Z"/>
    <polygon class="st8" points="336.4 287.6 331.1 263 337.5 275.3 337.9 273.7 343.4 263.8 339 287.6 336.4 287.6"/>
    <rect class="st8" x="336.8" y="261.2" width="1.3" height="24.3" transform="translate(-3.3 4.1) rotate(-.7)"/>
    <path class="st7" d="M338.8,266.3c0,.8-.6,1.4-1.4,1.4h0c-.8,0-1.4-.6-1.4-1.4v-9.9c0-.8.6-1.4,1.4-1.4h0c.8,0,1.4.6,1.4,1.4v9.9Z"/>
    <polygon class="st8" points="346.6 287.6 343.1 262 347.6 275.3 348 273.7 353.7 265.2 349.2 287.6 346.6 287.6"/>
    <rect class="st8" x="347" y="261.1" width="1.3" height="24.3" transform="translate(-3.3 4.3) rotate(-.7)"/>
    <path class="st7" d="M348.9,262.8c0,.8-.6,1.4-1.4,1.4h0c-.8,0-1.4-.6-1.4-1.4v-9.9c0-.8.6-1.4,1.4-1.4h0c.8,0,1.4.6,1.4,1.4v9.9Z"/>
    <polygon class="st8" points="335.4 293.8 327.6 269.4 338.6 282.1 343.2 272.2 348 281.1 356.9 270.1 350.2 294 335.4 293.8"/>
    <path class="st3" d="M335.5,294.7c.2-1.9,0-15.5,0-15.5,0,0,3.5,9.6,3.6,8.5s4.5-8.2,4.5-8.2l1,10.6,4.8-7.3.4,9.2.7,3-14.8-.2h-.2Z"/>
  </g>
  <polygon class="st2" points="127.3 89.6 124.1 86.4 120.8 89.6 120.8 83.1 109.5 83.1 109.5 79.9 99.8 79.9 99.8 91.2 94.9 91.2 94.9 99.3 127.3 99.3 127.3 89.6"/>
  <rect class="st1" x="49.5" y="70.2" width="45.4" height="29.2"/>
  <rect class="st5" x="52.8" y="73.4" width="38.9" height="1.6"/>
  <rect class="st5" x="52.8" y="78.3" width="38.9" height="1.6"/>
  <rect class="st5" x="52.8" y="83.1" width="38.9" height="1.6"/>
  <rect class="st5" x="52.8" y="88" width="38.9" height="1.6"/>
  <rect class="st5" x="52.8" y="92.9" width="38.9" height="1.6"/>
  <rect class="st1" x="54.4" y="66.9" width="1.6" height="4.9"/>
  <path class="st1" d="M57.1,97.8c.1-.3.2-.6.2-1,0-1.2-1-2.2-2.2-2.2s-.3,0-.5,0c-.4-1.6-1.9-2.8-3.7-2.8s-2.8.9-3.4,2.2c-.4-.2-.8-.2-1.3-.2-1.9,0-3.4,1.5-3.4,3.4s0,.4,0,.6c-1.2,0-2.2,1-2.2,2.2s1,2.2,2.2,2.2h14.1c1.2,0,2.2-1,2.2-2.2s-1-2.2-2.1-2.2Z"/>
  <path class="st2" d="M79.1,102.7h-.4c.1-.5.2-1,.2-1.5,0-3.3-2.7-6-6-6s-1.4.1-2,.4c-1.2-2-3.3-3.4-5.8-3.4s-5.7,2.1-6.5,5c-.3,0-.5,0-.8,0-2.2,0-3.9,1.8-3.9,3.9s.2,1.2.4,1.7c-2.1,0-3.8,1.8-3.8,3.9s1.8,3.9,3.9,3.9h24.7c2.2,0,3.9-1.8,3.9-3.9s-1.8-3.9-3.9-3.9Z"/>
</svg>