<?xml version="1.0" encoding="UTF-8"?>
<svg id="algemene_achtergrond" xmlns="http://www.w3.org/2000/svg" version="1.1" viewBox="0 0 841.9 544.3">
  <!-- Generator: Adobe Illustrator 29.2.1, SVG Export Plug-In . SVG Version: 2.1.0 Build 116)  -->
  <defs>
    <style>
      .st0 {
        fill: #229936;
      }

      .st1 {
        fill: #915e3d;
      }

      .st2 {
        fill: #40c3e8;
      }

      .st3 {
        fill: #253b7c;
      }

      .st4 {
        fill: #d0dd28;
      }

      .st5 {
        fill: #e7ee93;
      }
    </style>
  </defs>
  <path class="st3" d="M319.2,67.6h17.5l13.3-16.6h4l-6.6,16.6h12.4l2.7-5.7h2.8l-1,7.7c0,2.1-1.7,3.8-3.8,3.8h-12.9l6.8,17.6h-4l-14.1-17.4h-17c-1.7,0-3.1-1.4-3.1-3.1s1.4-3.1,3.1-3.1"/>
  <g>
    <rect class="st5" x="69.7" y="110.2" width="702.5" height="363" rx="45" ry="45"/>
    <path class="st0" d="M738.8,106c1.2-3,1.9-6.2,1.9-9.6,0-14-11.4-25.4-25.4-25.4s-14.2,3.2-18.9,8.4c-2.3-2-5.3-3.3-8.6-3.3-7.1,0-12.8,5.7-12.8,12.8s0,.5,0,.8c-7.1,0-12.8,5.7-12.8,12.8s0,2,.4,2.9c-6.9,1.8-12.1,8.2-12.1,15.7s7.3,16.2,16.2,16.2h65.8c9,0,16.2-7.3,16.2-16.2s-4.2-12.6-10.1-15.1h.2Z"/>
    <polygon class="st0" points="427.3 456.7 436.3 452.2 430.3 462.7 410.8 462.7 400.3 447.7 412.3 456.7 409.3 443.2 416.8 453.7 418.3 438.7 422.8 453.7 433.3 443.2 427.3 456.7"/>
    <polyline class="st0" points="89.8 443.2 86.8 429.7 94.3 440.2 95.8 425.2 100.3 440.2 110.8 429.7 104.8 443.2 113.8 438.7 107.8 449.2 88.3 449.2"/>
    <polygon class="st0" points="565.3 185.2 574.3 180.7 568.3 191.2 548.8 191.2 538.3 176.2 550.3 185.2 547.3 171.7 554.8 182.2 556.3 167.2 560.8 182.2 571.3 171.7 565.3 185.2"/>
    <path class="st2" d="M375.6,223.8l-92.9.5c-17.9,0-32.4,14.5-32.7,32.4l-.6,66.4c-.2,18.3,14.5,33.2,32.8,33.2h87.4c1.5,0,2.7,1.2,2.7,2.7v114.3h21v-125.8c0-6.7-5.4-12.1-12.1-12.1h-18.3c-7.9,0-14.2-6.4-14.2-14.2h0c0-7.9,6.4-14.3,14.2-14.3h57.8V110.4h-45v113.6-.2Z"/>
    <rect class="st1" x="372.3" y="379.5" width="3" height="10.5"/>
    <rect class="st1" x="376.8" y="379.5" width="3" height="10.5"/>
    <rect class="st1" x="381.3" y="379.5" width="3" height="10.5"/>
    <rect class="st1" x="385.8" y="379.5" width="3" height="10.5"/>
    <rect class="st1" x="390.3" y="379.5" width="3" height="10.5"/>
    <g>
      <path class="st4" d="M374.6,173c2.9-1.4,5-4.4,5-7.8s-1.3-5.2-3.3-6.8l1.6-1.6c3.9-3.9,3.9-10.1,0-14s-10.1-3.9-14,0l-.4.4v-.3c0-4.8-3.9-8.7-8.7-8.7s-8.7,3.9-8.7,8.7.1,1.8.4,2.6h-1.5c-7.5,0-13.5,6-13.5,13.5s3,9.7,7.3,12c-2.2,3.3-3.5,7.3-3.5,11.6,0,11.6,9.4,21,21,21h4.7v-9.9c2.1,1.6,4.6,2.5,7.4,2.5,6.8,0,12.4-5.5,12.4-12.4s-2.5-8.6-6.2-10.7h0Z"/>
      <polygon class="st1" points="368.8 166.4 366.7 163.7 361.4 167.7 353.8 157.9 351 160.1 358.9 170.1 358.6 170.1 358 184.7 349.4 180.9 348 184.1 357.8 188.4 356.1 216.7 364.8 216.7 362.4 171.3 368.8 166.4"/>
    </g>
    <path class="st0" d="M334.4,207.1c.5-1.1.8-2.4.8-3.7,0-4.8-3.9-8.6-8.6-8.6s-1.2,0-1.8.2c-1.7-6.2-7.4-10.8-14.2-10.8s-10.8,3.4-13.2,8.3c-1.5-.6-3.1-.9-4.8-.9-7.2,0-13.1,5.9-13.1,13.1s0,1.7.2,2.5c-4.7,0-8.4,3.9-8.4,8.6s3.9,8.6,8.6,8.6h54.1c4.8,0,8.6-3.9,8.6-8.6s-3.6-8.4-8.2-8.6h0Z"/>
    <g>
      <polygon class="st0" points="406.8 299.5 401.5 274.9 407.8 287.2 408.2 285.5 413.7 275.7 409.4 299.5 406.8 299.5"/>
      <rect class="st0" x="407.2" y="273.1" width="1.3" height="24.3" transform="translate(-3.5 5) rotate(-.7)"/>
      <path class="st1" d="M409.1,278.1c0,.8-.6,1.4-1.4,1.4h0c-.8,0-1.4-.6-1.4-1.4v-9.9c0-.8.6-1.4,1.4-1.4h0c.8,0,1.4.6,1.4,1.4v9.9Z"/>
      <polygon class="st0" points="416.9 299.5 413.4 273.9 418 287.2 418.4 285.5 424 277.1 419.5 299.5 416.9 299.5"/>
      <rect class="st0" x="417.3" y="273.1" width="1.3" height="24.3" transform="translate(-3.5 5.1) rotate(-.7)"/>
      <path class="st1" d="M419.2,274.6c0,.8-.6,1.4-1.4,1.4h0c-.8,0-1.4-.6-1.4-1.4v-9.9c0-.8.6-1.4,1.4-1.4h0c.8,0,1.4.6,1.4,1.4v9.9Z"/>
      <polygon class="st0" points="405.7 305.7 397.9 281.3 409 293.9 413.5 284.1 418.3 293 427.3 282 420.6 305.8 405.7 305.7"/>
      <path class="st4" d="M405.8,306.5c.2-1.9,0-15.5,0-15.5,0,0,3.5,9.6,3.6,8.5s4.4-8.2,4.4-8.2l1,10.6,4.8-7.3.4,9.2.7,3-14.8-.2h-.1Z"/>
    </g>
  </g>
</svg>