<?xml version="1.0" encoding="UTF-8"?><svg id="b" xmlns="http://www.w3.org/2000/svg" viewBox="0 0 31.43 31.43"><defs><style>.d{fill:#253b7c;}.e{fill:#fffff3;}</style></defs><g id="c"><circle class="d" cx="15.72" cy="15.72" r="15.72"/><path class="e" d="M21.96,9.48h0c-.47-.47-1.23-.47-1.71,0l-4.53,4.53-4.53-4.53c-.47-.47-1.23-.47-1.71,0h0c-.47.47-.47,1.23,0,1.71l4.53,4.53-4.53,4.53c-.47.47-.47,1.23,0,1.71h0c.47.47,1.23.47,1.71,0l4.53-4.53,4.53,4.53c.47.47,1.23.47,1.71,0h0c.47-.47.47-1.23,0-1.71l-4.53-4.53,4.53-4.53c.47-.47.47-1.23,0-1.71Z"/></g></svg>