<?xml version="1.0" encoding="UTF-8"?>
<svg id="algemene_achtergrond" xmlns="http://www.w3.org/2000/svg" version="1.1" viewBox="0 0 841.9 601.6">
  <!-- Generator: Adobe Illustrator 29.2.1, SVG Export Plug-In . SVG Version: 2.1.0 Build 116)  -->
  <defs>
    <style>
      .st0 {
        fill: #253b7c;
      }

      .st1 {
        fill: #e7ee93;
      }

      .st2 {
        fill: #40c3e8;
      }

      .st3 {
        fill: #d0dd28;
      }

      .st4 {
        fill: #915e3d;
      }

      .st5 {
        fill: #229936;
      }
    </style>
  </defs>
  <rect class="st1" x="68.6" y="155.6" width="702.5" height="363" rx="45" ry="45"/>
  <path class="st5" d="M737.7,151.4c1.2-3,1.9-6.2,1.9-9.6,0-14-11.4-25.4-25.4-25.4s-14.2,3.2-18.9,8.4c-2.3-2-5.3-3.3-8.6-3.3-7.1,0-12.8,5.7-12.8,12.8s0,.5,0,.8c-7.1,0-12.8,5.7-12.8,12.8s.1,2,.4,2.9c-6.9,1.8-12.1,8.2-12.1,15.7s7.3,16.2,16.2,16.2h65.8c9,0,16.2-7.3,16.2-16.2s-4.2-12.6-10.1-15.1Z"/>
  <polygon class="st5" points="426.2 502.1 435.2 497.6 429.2 508.1 409.7 508.1 399.2 493.1 411.2 502.1 408.2 488.6 415.7 499.1 417.2 484.1 421.7 499.1 432.2 488.6 426.2 502.1"/>
  <polyline class="st5" points="88.7 488.6 85.7 475.1 93.2 485.6 94.7 470.6 99.2 485.6 109.7 475.1 103.7 488.6 112.7 484.1 106.7 494.6 87.2 494.6"/>
  <polygon class="st5" points="564.2 230.6 573.2 226.1 567.2 236.6 547.7 236.6 537.2 221.6 549.2 230.6 546.2 217.1 553.7 227.6 555.2 212.6 559.7 227.6 570.2 217.1 564.2 230.6"/>
  <path class="st0" d="M319.2,73.9h17.5l13.3-16.6h4l-6.6,16.6h12.4l2.7-5.7h2.8l-1,7.7c0,2.1-1.7,3.8-3.8,3.8h-12.9l6.8,17.6h-4l-14.1-17.4h-17c-1.7,0-3.1-1.4-3.1-3.1s1.4-3.1,3.1-3.1"/>
  <path class="st2" d="M374.5,269.2l-92.9.5c-17.9,0-32.4,14.5-32.7,32.4l-.6,66.4c-.2,18.3,14.5,33.2,32.8,33.2h87.4c1.5,0,2.7,1.2,2.7,2.7v114.3h21v-125.8c0-6.7-5.4-12.1-12.1-12.1h-18.3c-7.9,0-14.2-6.4-14.2-14.2h0c0-7.9,6.4-14.3,14.2-14.3h57.8s0-196.5,0-196.5h-45s0,113.6,0,113.6Z"/>
  <rect class="st4" x="371.2" y="424.9" width="3" height="10.5"/>
  <rect class="st4" x="375.7" y="424.9" width="3" height="10.5"/>
  <rect class="st4" x="380.2" y="424.9" width="3" height="10.5"/>
  <rect class="st4" x="384.7" y="424.9" width="3" height="10.5"/>
  <rect class="st4" x="389.2" y="424.9" width="3" height="10.5"/>
  <g>
    <path class="st3" d="M373.5,218.4c2.9-1.4,5-4.4,5-7.8s-1.3-5.2-3.3-6.8l1.6-1.6c3.9-3.9,3.9-10.1,0-14-3.9-3.9-10.1-3.9-14,0l-.4.4c0-.1,0-.2,0-.3,0-4.8-3.9-8.7-8.7-8.7s-8.7,3.9-8.7,8.7.1,1.8.4,2.6c-.5,0-1,0-1.5,0-7.5,0-13.5,6-13.5,13.5s3,9.7,7.3,12c-2.2,3.3-3.5,7.3-3.5,11.6,0,11.6,9.4,21,21,21h4.7v-9.9c2.1,1.6,4.6,2.5,7.4,2.5,6.8,0,12.4-5.5,12.4-12.4s-2.5-8.6-6.2-10.7Z"/>
    <polygon class="st4" points="367.7 211.8 365.6 209.1 360.3 213.1 352.7 203.3 349.9 205.5 357.8 215.5 357.5 215.5 356.9 230.1 348.3 226.3 346.9 229.5 356.7 233.8 355 262.1 363.7 262.1 361.3 216.7 367.7 211.8"/>
  </g>
  <path class="st5" d="M333.3,252.5c.5-1.1.8-2.4.8-3.7,0-4.8-3.9-8.6-8.6-8.6s-1.2,0-1.8.2c-1.7-6.2-7.4-10.8-14.2-10.8s-10.8,3.4-13.2,8.3c-1.5-.6-3.1-.9-4.8-.9-7.2,0-13.1,5.9-13.1,13.1s0,1.7.2,2.5c-4.7,0-8.4,3.9-8.4,8.6s3.9,8.6,8.6,8.6h54.1c4.8,0,8.6-3.9,8.6-8.6s-3.6-8.4-8.2-8.6Z"/>
  <g>
    <polygon class="st5" points="405.7 344.9 400.4 320.3 406.7 332.6 407.1 330.9 412.6 321.1 408.3 344.9 405.7 344.9"/>
    <rect class="st5" x="406" y="318.6" width="1.3" height="24.3" transform="translate(-3.9 4.9) rotate(-.7)"/>
    <path class="st4" d="M408,323.5c0,.8-.6,1.4-1.4,1.4h0c-.8,0-1.4-.6-1.4-1.4v-9.9c0-.8.6-1.4,1.4-1.4h0c.8,0,1.4.6,1.4,1.4v9.9Z"/>
    <polygon class="st5" points="415.8 344.9 412.3 319.3 416.9 332.6 417.3 330.9 422.9 322.5 418.4 344.9 415.8 344.9"/>
    <rect class="st5" x="416.1" y="318.6" width="1.3" height="24.3" transform="translate(-3.9 5) rotate(-.7)"/>
    <path class="st4" d="M418.1,320c0,.8-.6,1.4-1.4,1.4h0c-.8,0-1.4-.6-1.4-1.4v-9.9c0-.8.6-1.4,1.4-1.4h0c.8,0,1.4.6,1.4,1.4v9.9Z"/>
    <polygon class="st5" points="404.6 351.1 396.8 326.7 407.9 339.3 412.4 329.5 417.2 338.4 426.2 327.4 419.5 351.2 404.6 351.1"/>
    <path class="st3" d="M404.7,351.9c.2-1.9,0-15.5,0-15.5,0,0,3.5,9.6,3.6,8.5s4.4-8.2,4.4-8.2l1,10.6,4.8-7.3.4,9.2.7,3-14.8-.2Z"/>
  </g>
</svg>